<svg xmlns="http://www.w3.org/2000/svg" xmlns:xlink="http://www.w3.org/1999/xlink" width="320" zoomAndPan="magnify" viewBox="0 0 240 74.999997" height="100" preserveAspectRatio="xMidYMid meet" version="1.0"><defs><g/></defs><rect x="-24" width="288" fill="#ffffff" y="-7.5" height="89.999996" fill-opacity="1"/><rect x="-24" width="288" fill="#ffffff" y="-7.5" height="89.999996" fill-opacity="1"/><g fill="#00a6fb" fill-opacity="1"><g transform="translate(34.378625, 49.415526)"><g><path d="M 23.453125 -20.667969 C 30.597656 -20.667969 32.082031 -27.289062 31.363281 -32.5625 L 30.308594 -32.5625 C 30.308594 -30.453125 29.78125 -29.109375 27.433594 -29.109375 C 25.035156 -29.109375 21.917969 -32.804688 17.121094 -32.804688 C 8.152344 -32.804688 0.863281 -25.417969 0.863281 -16.257812 C 0.863281 -7.097656 8.152344 0.335938 17.121094 0.335938 C 23.5 0.335938 29.6875 -3.40625 32.324219 -8.824219 L 31.363281 -9.351562 C 29.589844 -5.945312 26.28125 -2.828125 22.011719 -3.882812 C 18.945312 -4.605469 15.296875 -8.058594 12.132812 -13.140625 C 7.671875 -20.335938 6.28125 -27.527344 9.0625 -29.253906 C 13.90625 -32.324219 16.355469 -20.667969 23.453125 -20.667969 Z M 23.453125 -20.667969 "/></g></g></g><g fill="#00a6fb" fill-opacity="1"><g transform="translate(66.749892, 49.415526)"><g><path d="M 0.960938 -32.515625 L 0.960938 0 L 11.460938 0 L 11.460938 -24.792969 C 11.460938 -31.027344 2.15625 -25.847656 2.15625 -32.515625 Z M 0.960938 -32.515625 "/></g></g></g><g fill="#00a6fb" fill-opacity="1"><g transform="translate(79.17087, 49.415526)"><g><path d="M 15.203125 -26.28125 C 6.617188 -26.28125 0.863281 -20.8125 0.863281 -12.996094 C 0.863281 -5.132812 6.617188 0.335938 15.203125 0.335938 C 23.738281 0.335938 29.492188 -5.132812 29.492188 -12.996094 C 29.492188 -20.8125 23.738281 -26.28125 15.203125 -26.28125 Z M 22.011719 -2.207031 C 19.277344 -0.480469 15.683594 -4.316406 11.605469 -10.695312 C 7.53125 -17.121094 5.609375 -22.011719 8.34375 -23.789062 C 11.078125 -25.511719 14.675781 -21.675781 18.75 -15.25 C 22.78125 -8.871094 24.792969 -3.933594 22.011719 -2.207031 Z M 22.011719 -2.207031 "/></g></g></g><g fill="#00a6fb" fill-opacity="1"><g transform="translate(109.527936, 49.415526)"><g><path d="M 10.933594 -19.613281 C 4.027344 -21.339844 5.132812 -25.082031 7.960938 -25.082031 C 11.269531 -25.082031 13.238281 -18.414062 17.023438 -18.414062 C 21.148438 -18.414062 22.0625 -23.644531 22.0625 -25.945312 L 20.8125 -25.945312 C 20.8125 -24.507812 19.230469 -23.789062 17.410156 -23.789062 C 14.050781 -23.789062 12.324219 -26.28125 7.960938 -26.28125 C 4.125 -26.28125 0.765625 -22.347656 0.910156 -18.222656 C 1.054688 -12.757812 5.851562 -9.734375 10.359375 -8.871094 C 15.683594 -7.863281 17.410156 -5.804688 17.839844 -3.980469 C 18.222656 -2.300781 17.167969 -1.152344 15.96875 -1.054688 C 12.613281 -0.765625 12.660156 -8.96875 6.425781 -8.96875 C 1.34375 -8.96875 1.199219 -2.351562 1.199219 0 L 2.398438 0 C 2.398438 -1.773438 3.355469 -2.78125 5.371094 -2.78125 C 8.679688 -2.78125 9.925781 0.335938 14.292969 0.335938 C 20.335938 0.335938 22.539062 -4.171875 22.683594 -8.777344 C 22.875 -14.867188 18.222656 -17.746094 10.933594 -19.613281 Z M 10.933594 -19.613281 "/></g></g></g><g fill="#00a6fb" fill-opacity="1"><g transform="translate(133.075045, 49.415526)"><g><path d="M 1.101562 -25.945312 L 1.101562 0 L 11.605469 0 L 11.511719 -21.101562 C 11.511719 -22.828125 11.941406 -24.074219 13.1875 -23.882812 C 16.160156 -23.453125 14.53125 -15.492188 20.765625 -15.492188 C 24.84375 -15.492188 27.097656 -17.984375 26.617188 -25.945312 L 25.371094 -25.945312 C 25.371094 -24.171875 24.84375 -22.828125 23.257812 -22.828125 C 20.910156 -22.828125 21.101562 -26.28125 15.492188 -26.28125 C 11.511719 -26.28125 10.214844 -22.972656 7.050781 -22.394531 C 4.414062 -21.917969 2.300781 -22.253906 2.300781 -25.945312 Z M 1.101562 -25.945312 "/></g></g></g><g fill="#333333" fill-opacity="1"><g transform="translate(160.608755, 49.415526)"><g><path d="M 15.058594 0 C 13.140625 -2.109375 11.316406 -5.324219 10.261719 -8.777344 L 17.410156 -8.777344 C 18.992188 -4.078125 22.828125 0.335938 28.101562 0.335938 C 30.550781 0.335938 33.617188 -0.574219 35.535156 -3.261719 L 34.722656 -4.125 C 33.1875 -2.492188 30.742188 -2.6875 29.542969 -5.417969 C 27.625 -9.878906 26.617188 -15.585938 24.554688 -21.726562 C 22.78125 -27.097656 17.839844 -32.753906 8.152344 -32.753906 L 8.152344 -31.507812 C 10.3125 -31.507812 11.175781 -29.445312 12.421875 -25.417969 C 11.175781 -23.882812 9.832031 -22.15625 8.777344 -20.527344 C 5.5625 -15.632812 0.863281 -6.90625 0.863281 0 Z M 17.023438 -9.925781 L 9.976562 -9.925781 C 8.921875 -14.003906 8.96875 -18.367188 11.125 -21.628906 C 11.703125 -22.492188 12.277344 -23.257812 12.851562 -24.074219 C 14.242188 -19.566406 15.585938 -14.339844 17.023438 -9.925781 Z M 17.023438 -9.925781 "/></g></g></g><g fill="#333333" fill-opacity="1"><g transform="translate(192.884111, 49.415526)"><g><path d="M 11.605469 0 L 11.605469 -32.515625 L 1.101562 -32.515625 L 1.101562 0 Z M 11.605469 0 "/></g></g></g></svg>